<svg id="Capa_1" enable-background="new 0 0 512 512" height="512" viewBox="0 0 512 512" width="512" xmlns="http://www.w3.org/2000/svg"><g><path d="m497 143.328c0-79.158-64.133-143.328-143.25-143.328-75.53 0-137.42 58.504-142.858 132.695 86.412 8.738 157.214 71.027 178.066 153.961h108.042l-36.119-48.184c22.474-25.312 36.119-58.635 36.119-95.144z"/><path d="m205.778 162.33c-103.051-9.082-190.778 71.941-190.778 174.496 0 44.625 16.682 85.34 44.144 116.272l-44.144 58.902h175.083c96.69 0 175.084-78.425 175.084-175.174 0-91.068-69.656-166.519-159.389-174.496zm-111.195 126.727h95.5v31.867h-95.5zm191.001 95.602h-191.001v-31.867h191.001z"/></g></svg>