<?xml version="1.0" standalone="no"?>
<!DOCTYPE svg PUBLIC "-//W3C//DTD SVG 20010904//EN"
 "http://www.w3.org/TR/2001/REC-SVG-20010904/DTD/svg10.dtd">
<svg version="1.0" xmlns="http://www.w3.org/2000/svg"
 width="600.000000pt" height="600.000000pt" viewBox="0 0 600.000000 600.000000"
 preserveAspectRatio="xMidYMid meet">
<metadata>
Created by potrace 1.11, written by Peter Selinger 2001-2013
</metadata>
<g transform="translate(0.000000,600.000000) scale(0.100000,-0.100000)"
fill="#000000" stroke="none">
<path d="M1450 5935 c-533 -74 -1007 -408 -1254 -885 -180 -349 -223 -639
-172 -1170 3 -25 7 -83 11 -130 3 -47 8 -107 10 -135 2 -27 7 -86 10 -130 3
-44 7 -98 10 -120 2 -22 7 -76 10 -120 3 -44 8 -100 10 -125 2 -25 6 -81 9
-125 7 -92 14 -174 21 -260 3 -33 7 -91 10 -130 3 -38 7 -95 10 -125 11 -126
15 -179 20 -250 3 -41 7 -95 10 -120 2 -25 7 -85 10 -135 4 -49 9 -108 11
-130 1 -22 6 -76 9 -120 4 -44 8 -96 10 -115 2 -19 6 -78 10 -130 4 -52 9
-111 10 -130 2 -19 6 -72 9 -118 4 -45 9 -99 11 -120 2 -20 6 -80 10 -132 4
-52 8 -111 10 -130 2 -19 6 -76 10 -127 4 -50 8 -100 10 -110 2 -10 4 -26 4
-36 1 -10 14 -32 30 -48 22 -22 39 -29 68 -29 35 0 45 8 143 108 94 97 356
372 440 462 18 19 98 104 179 189 80 84 168 176 194 205 27 28 111 116 187
196 76 80 155 163 176 185 20 22 106 112 190 200 84 88 169 178 190 200 20 22
107 114 193 204 86 90 172 181 191 201 92 98 340 359 380 400 124 130 185 207
250 314 137 225 211 444 246 721 3 22 5 105 5 185 0 251 -47 470 -153 700
-102 222 -249 417 -432 573 -33 28 -63 54 -66 57 -14 15 -115 82 -190 126
-109 64 -239 119 -364 156 -98 28 -108 30 -176 42 -19 3 -48 9 -65 12 -63 12
-362 12 -455 -1z"/>
<path d="M3921 5003 c-26 -21 -24 4 -36 -458 -3 -126 -8 -316 -11 -420 -5
-183 -4 -191 16 -213 18 -19 32 -22 98 -23 42 0 113 -2 157 -4 44 -1 208 -6
365 -10 157 -4 320 -8 364 -10 67 -2 81 1 102 19 22 19 25 30 27 116 4 109 -7
137 -56 144 -18 3 -156 8 -307 12 -439 10 -471 11 -477 17 -3 4 -5 28 -5 54 1
52 11 449 17 632 3 107 2 115 -19 136 -20 20 -34 23 -118 24 -79 2 -98 -1
-117 -16z"/>
<path d="M4085 3345 c-306 -43 -569 -153 -820 -343 -33 -25 -152 -139 -265
-253 -212 -214 -939 -952 -1254 -1272 -384 -391 -1082 -1100 -1094 -1113 -41
-43 -25 -126 29 -152 15 -7 86 -14 165 -17 77 -3 184 -7 239 -10 55 -2 161 -7
235 -10 74 -3 185 -8 245 -10 61 -3 173 -7 250 -10 77 -3 181 -8 230 -10 50
-2 160 -7 245 -10 85 -3 191 -8 235 -10 74 -4 250 -11 470 -20 114 -5 374 -15
485 -20 47 -2 153 -7 235 -10 83 -3 188 -8 235 -11 200 -13 497 -12 595 2 698
98 1253 594 1411 1262 33 140 39 198 38 397 -1 262 -47 458 -161 695 -109 222
-244 390 -467 578 -132 111 -407 251 -586 298 -43 11 -190 43 -225 49 -81 13
-380 13 -470 0z"/>
</g>
</svg>
